<svg width="157" height="167" viewBox="0 0 157 167" fill="none" xmlns="http://www.w3.org/2000/svg">
<circle cx="59.5" cy="59.5" r="59.5" fill="#282C35"/>
<line x1="3" y1="118.5" x2="155" y2="118.5" stroke="#282C35" stroke-width="5"/>
<path d="M4.875 135.775H13.9V137.925H4.875V135.775ZM5.125 145H2.625V127.5H14.975V129.675H5.125V145ZM15.2885 145L23.2135 127.5H25.6885L33.6385 145H31.0135L23.9385 128.9H24.9385L17.8635 145H15.2885ZM18.6635 140.625L19.3385 138.625H29.1885L29.9135 140.625H18.6635ZM36.499 145V127.5H38.999V145H36.499ZM44.4883 145V127.5H51.3133C52.8466 127.5 54.1549 127.742 55.2383 128.225C56.3216 128.708 57.1549 129.408 57.7383 130.325C58.3216 131.242 58.6133 132.333 58.6133 133.6C58.6133 134.867 58.3216 135.958 57.7383 136.875C57.1549 137.775 56.3216 138.467 55.2383 138.95C54.1549 139.433 52.8466 139.675 51.3133 139.675H45.8633L46.9883 138.525V145H44.4883ZM56.1883 145L51.7383 138.65H54.4133L58.9133 145H56.1883ZM46.9883 138.775L45.8633 137.55H51.2383C52.8383 137.55 54.0466 137.208 54.8633 136.525C55.6966 135.825 56.1133 134.85 56.1133 133.6C56.1133 132.35 55.6966 131.383 54.8633 130.7C54.0466 130.017 52.8383 129.675 51.2383 129.675H45.8633L46.9883 128.425V138.775ZM73.3412 145V129.675H67.3412V127.5H81.8162V129.675H75.8162V145H73.3412ZM84.7891 145V127.5H91.6141C93.1474 127.5 94.4557 127.742 95.5391 128.225C96.6224 128.708 97.4557 129.408 98.0391 130.325C98.6224 131.242 98.9141 132.333 98.9141 133.6C98.9141 134.867 98.6224 135.958 98.0391 136.875C97.4557 137.775 96.6224 138.467 95.5391 138.95C94.4557 139.433 93.1474 139.675 91.6141 139.675H86.1641L87.2891 138.525V145H84.7891ZM96.4891 145L92.0391 138.65H94.7141L99.2141 145H96.4891ZM87.2891 138.775L86.1641 137.55H91.5391C93.1391 137.55 94.3474 137.208 95.1641 136.525C95.9974 135.825 96.4141 134.85 96.4141 133.6C96.4141 132.35 95.9974 131.383 95.1641 130.7C94.3474 130.017 93.1391 129.675 91.5391 129.675H86.1641L87.2891 128.425V138.775ZM100.553 145L108.478 127.5H110.953L118.903 145H116.278L109.203 128.9H110.203L103.128 145H100.553ZM103.928 140.625L104.603 138.625H114.453L115.178 140.625H103.928ZM121.764 145V127.5H129.139C131.005 127.5 132.647 127.867 134.064 128.6C135.497 129.333 136.605 130.358 137.389 131.675C138.189 132.992 138.589 134.517 138.589 136.25C138.589 137.983 138.189 139.508 137.389 140.825C136.605 142.142 135.497 143.167 134.064 143.9C132.647 144.633 131.005 145 129.139 145H121.764ZM124.264 142.825H128.989C130.439 142.825 131.689 142.55 132.739 142C133.805 141.45 134.63 140.683 135.214 139.7C135.797 138.7 136.089 137.55 136.089 136.25C136.089 134.933 135.797 133.783 135.214 132.8C134.63 131.817 133.805 131.05 132.739 130.5C131.689 129.95 130.439 129.675 128.989 129.675H124.264V142.825ZM144.943 135.05H153.943V137.175H144.943V135.05ZM145.168 142.825H155.368V145H142.668V127.5H155.018V129.675H145.168V142.825Z" fill="black"/>
<path d="M52.096 164.182C51.212 164.182 50.4233 163.989 49.73 163.603C49.041 163.213 48.4972 162.665 48.0985 161.959C47.7042 161.248 47.507 160.412 47.507 159.45C47.507 158.488 47.7063 157.654 48.105 156.947C48.508 156.237 49.0583 155.689 49.756 155.303C50.458 154.913 51.2553 154.718 52.148 154.718C52.6117 154.718 53.0537 154.768 53.474 154.867C53.8943 154.967 54.2627 155.095 54.579 155.251L54.449 156.395C54.124 156.239 53.7665 156.107 53.3765 155.998C52.9865 155.89 52.5727 155.836 52.135 155.836C51.42 155.836 50.8198 155.998 50.3345 156.323C49.8492 156.644 49.4808 157.077 49.2295 157.623C48.9825 158.169 48.859 158.778 48.859 159.45C48.859 160.122 48.9803 160.73 49.223 161.276C49.47 161.822 49.834 162.258 50.315 162.583C50.8003 162.904 51.3983 163.064 52.109 163.064C52.5597 163.064 52.9757 163.016 53.357 162.921C53.7427 162.821 54.1067 162.687 54.449 162.518L54.579 163.662C54.254 163.809 53.8878 163.933 53.4805 164.033C53.0732 164.132 52.6117 164.182 52.096 164.182ZM56.4507 164V154.9H62.0017V156.018H57.6857V158.683H61.1177V159.801H57.6857V162.882H62.1187V164H56.4507ZM64.049 164V154.9H67C67.6327 154.9 68.1852 154.997 68.6575 155.192C69.1298 155.387 69.496 155.689 69.756 156.096C70.016 156.503 70.146 157.028 70.146 157.669C70.146 158.293 70.0095 158.815 69.7365 159.235C69.4678 159.656 69.0757 159.987 68.56 160.23L70.601 164H69.093L67.247 160.451C67.234 160.451 67.2232 160.451 67.2145 160.451C67.2058 160.451 67.195 160.451 67.182 160.451H65.349V164H64.049ZM65.349 159.346H66.987C67.6067 159.346 68.0725 159.196 68.3845 158.897C68.7008 158.598 68.859 158.189 68.859 157.669C68.859 157.14 68.7008 156.731 68.3845 156.44C68.0725 156.15 67.6067 156.005 66.987 156.005H65.349V159.346ZM73.924 164V156.018H71.272V154.9H77.811V156.018H75.159V164H73.924ZM79.4486 164V154.9H80.6836V164H79.4486ZM83.1621 164V154.9H88.7131V156.018H84.3971V158.683H87.7251V159.801H84.3971V164H83.1621ZM90.3668 164V154.9H91.6018V164H90.3668ZM94.0802 164V154.9H99.6312V156.018H95.3152V158.683H98.7472V159.801H95.3152V162.882H99.7482V164H94.0802ZM101.678 164V154.9H105.045C105.925 154.9 106.705 155.08 107.385 155.439C108.066 155.799 108.599 156.319 108.984 156.999C109.374 157.675 109.569 158.492 109.569 159.45C109.569 160.408 109.374 161.227 108.984 161.907C108.599 162.583 108.066 163.101 107.385 163.46C106.705 163.82 105.925 164 105.045 164H101.678ZM102.913 162.882H105.045C105.739 162.882 106.319 162.739 106.787 162.453C107.26 162.163 107.615 161.76 107.853 161.244C108.096 160.728 108.217 160.13 108.217 159.45C108.217 158.77 108.096 158.172 107.853 157.656C107.615 157.14 107.26 156.739 106.787 156.453C106.319 156.163 105.739 156.018 105.045 156.018H102.913V162.882Z" fill="black"/>
<rect x="91" y="60" width="64" height="56" fill="#F9F9F9"/>
<path d="M102.7 87.86H124.36V93.02H102.7V87.86ZM103.3 110H97.3V68H126.94V73.22H103.3V110Z" fill="#282C35"/>
</svg>
