<svg width="293" height="77" viewBox="0 0 293 77" fill="none" xmlns="http://www.w3.org/2000/svg">
<path d="M5.49242 34.12H27.0924V39.22H5.49242V34.12ZM6.03242 52.78H30.5124V58H0.0324221V16H29.6724V21.22H6.03242V52.78ZM39.7277 58V16H45.7277V52.78H68.4677V58H39.7277ZM80.2527 35.86H101.913V41.02H80.2527V35.86ZM80.8527 58H74.8527V16H104.493V21.22H80.8527V58ZM112.439 58V16H128.819C132.499 16 135.639 16.58 138.239 17.74C140.839 18.9 142.839 20.58 144.239 22.78C145.639 24.98 146.339 27.6 146.339 30.64C146.339 33.68 145.639 36.3 144.239 38.5C142.839 40.66 140.839 42.32 138.239 43.48C135.639 44.64 132.499 45.22 128.819 45.22H115.739L118.439 42.46V58H112.439ZM140.519 58L129.839 42.76H136.259L147.059 58H140.519ZM118.439 43.06L115.739 40.12H128.639C132.479 40.12 135.379 39.3 137.339 37.66C139.339 35.98 140.339 33.64 140.339 30.64C140.339 27.64 139.339 25.32 137.339 23.68C135.379 22.04 132.479 21.22 128.639 21.22H115.739L118.439 18.22V43.06ZM155.532 58V16H161.532V58H155.532ZM179.067 34.12H200.667V39.22H179.067V34.12ZM179.607 52.78H204.087V58H173.607V16H203.247V21.22H179.607V52.78ZM213.302 58V16H231.002C235.482 16 239.422 16.88 242.822 18.64C246.262 20.4 248.922 22.86 250.802 26.02C252.722 29.18 253.682 32.84 253.682 37C253.682 41.16 252.722 44.82 250.802 47.98C248.922 51.14 246.262 53.6 242.822 55.36C239.422 57.12 235.482 58 231.002 58H213.302ZM219.302 52.78H230.642C234.122 52.78 237.122 52.12 239.642 50.8C242.202 49.48 244.182 47.64 245.582 45.28C246.982 42.88 247.682 40.12 247.682 37C247.682 33.84 246.982 31.08 245.582 28.72C244.182 26.36 242.202 24.52 239.642 23.2C237.122 21.88 234.122 21.22 230.642 21.22H219.302V52.78ZM267.832 34.12H289.432V39.22H267.832V34.12ZM268.372 52.78H292.852V58H262.372V16H292.012V21.22H268.372V52.78Z" fill="#282C35"/>
<path d="M78.3356 73L83.4076 61.8H84.9916L90.0796 73H88.3996L83.8716 62.696H84.5116L79.9836 73H78.3356ZM80.4956 70.2L80.9276 68.92H87.2316L87.6956 70.2H80.4956ZM91.9003 73V61.8H96.2683C97.2496 61.8 98.087 61.9547 98.7803 62.264C99.4736 62.5733 100.007 63.0213 100.38 63.608C100.754 64.1947 100.94 64.8933 100.94 65.704C100.94 66.5147 100.754 67.2133 100.38 67.8C100.007 68.376 99.4736 68.8187 98.7803 69.128C98.087 69.4373 97.2496 69.592 96.2683 69.592H92.7803L93.5003 68.856V73H91.9003ZM99.3883 73L96.5403 68.936H98.2523L101.132 73H99.3883ZM93.5003 69.016L92.7803 68.232H96.2203C97.2443 68.232 98.0176 68.0133 98.5403 67.576C99.0736 67.128 99.3403 66.504 99.3403 65.704C99.3403 64.904 99.0736 64.2853 98.5403 63.848C98.0176 63.4107 97.2443 63.192 96.2203 63.192H92.7803L93.5003 62.392V69.016ZM108.683 73.128C107.83 73.128 107.041 72.9893 106.315 72.712C105.601 72.424 104.977 72.024 104.443 71.512C103.921 70.9893 103.51 70.3813 103.211 69.688C102.913 68.9947 102.763 68.232 102.763 67.4C102.763 66.568 102.913 65.8053 103.211 65.112C103.51 64.4187 103.926 63.816 104.459 63.304C104.993 62.7813 105.617 62.3813 106.331 62.104C107.057 61.816 107.846 61.672 108.699 61.672C109.563 61.672 110.358 61.8213 111.083 62.12C111.819 62.408 112.443 62.84 112.955 63.416L111.915 64.424C111.489 63.976 111.009 63.6453 110.475 63.432C109.942 63.208 109.371 63.096 108.763 63.096C108.134 63.096 107.547 63.2027 107.003 63.416C106.47 63.6293 106.006 63.928 105.611 64.312C105.217 64.696 104.907 65.1547 104.683 65.688C104.47 66.2107 104.363 66.7813 104.363 67.4C104.363 68.0187 104.47 68.5947 104.683 69.128C104.907 69.6507 105.217 70.104 105.611 70.488C106.006 70.872 106.47 71.1707 107.003 71.384C107.547 71.5973 108.134 71.704 108.763 71.704C109.371 71.704 109.942 71.5973 110.475 71.384C111.009 71.16 111.489 70.8187 111.915 70.36L112.955 71.368C112.443 71.944 111.819 72.3813 111.083 72.68C110.358 72.9787 109.558 73.128 108.683 73.128ZM123.42 61.8H125.02V73H123.42V61.8ZM116.988 73H115.388V61.8H116.988V73ZM123.564 68.008H116.828V66.616H123.564V68.008ZM128.522 73V61.8H130.122V73H128.522ZM135.849 73V63.192H132.009V61.8H141.273V63.192H137.433V73H135.849ZM144.622 66.632H150.382V67.992H144.622V66.632ZM144.766 71.608H151.294V73H143.166V61.8H151.07V63.192H144.766V71.608ZM159.027 73.128C158.174 73.128 157.384 72.9893 156.659 72.712C155.944 72.424 155.32 72.024 154.787 71.512C154.264 70.9893 153.854 70.3813 153.555 69.688C153.256 68.9947 153.107 68.232 153.107 67.4C153.107 66.568 153.256 65.8053 153.555 65.112C153.854 64.4187 154.27 63.816 154.803 63.304C155.336 62.7813 155.96 62.3813 156.675 62.104C157.4 61.816 158.19 61.672 159.043 61.672C159.907 61.672 160.702 61.8213 161.427 62.12C162.163 62.408 162.787 62.84 163.299 63.416L162.259 64.424C161.832 63.976 161.352 63.6453 160.819 63.432C160.286 63.208 159.715 63.096 159.107 63.096C158.478 63.096 157.891 63.2027 157.347 63.416C156.814 63.6293 156.35 63.928 155.955 64.312C155.56 64.696 155.251 65.1547 155.027 65.688C154.814 66.2107 154.707 66.7813 154.707 67.4C154.707 68.0187 154.814 68.5947 155.027 69.128C155.251 69.6507 155.56 70.104 155.955 70.488C156.35 70.872 156.814 71.1707 157.347 71.384C157.891 71.5973 158.478 71.704 159.107 71.704C159.715 71.704 160.286 71.5973 160.819 71.384C161.352 71.16 161.832 70.8187 162.259 70.36L163.299 71.368C162.787 71.944 162.163 72.3813 161.427 72.68C160.702 72.9787 159.902 73.128 159.027 73.128ZM167.831 73V63.192H163.991V61.8H173.255V63.192H169.415V73H167.831ZM179.584 73.128C178.112 73.128 176.955 72.7067 176.112 71.864C175.269 71.0213 174.848 69.7893 174.848 68.168V61.8H176.448V68.104C176.448 69.352 176.72 70.264 177.264 70.84C177.819 71.416 178.597 71.704 179.6 71.704C180.613 71.704 181.392 71.416 181.936 70.84C182.491 70.264 182.768 69.352 182.768 68.104V61.8H184.32V68.168C184.32 69.7893 183.899 71.0213 183.056 71.864C182.224 72.7067 181.067 73.128 179.584 73.128ZM187.75 73V61.8H192.118C193.1 61.8 193.937 61.9547 194.63 62.264C195.324 62.5733 195.857 63.0213 196.23 63.608C196.604 64.1947 196.79 64.8933 196.79 65.704C196.79 66.5147 196.604 67.2133 196.23 67.8C195.857 68.376 195.324 68.8187 194.63 69.128C193.937 69.4373 193.1 69.592 192.118 69.592H188.63L189.35 68.856V73H187.75ZM195.238 73L192.39 68.936H194.102L196.982 73H195.238ZM189.35 69.016L188.63 68.232H192.07C193.094 68.232 193.868 68.0133 194.39 67.576C194.924 67.128 195.19 66.504 195.19 65.704C195.19 64.904 194.924 64.2853 194.39 63.848C193.868 63.4107 193.094 63.192 192.07 63.192H188.63L189.35 62.392V69.016ZM200.981 66.632H206.741V67.992H200.981V66.632ZM201.125 71.608H207.653V73H199.525V61.8H207.429V63.192H201.125V71.608ZM217.801 73.128C217.044 73.128 216.372 73.0053 215.785 72.76C215.198 72.5147 214.734 72.1733 214.393 71.736C214.052 71.2987 213.881 70.792 213.881 70.216C213.881 69.7147 213.993 69.256 214.217 68.84C214.441 68.424 214.798 68.024 215.289 67.64C215.78 67.2453 216.425 66.84 217.225 66.424C217.876 66.0827 218.382 65.784 218.745 65.528C219.118 65.272 219.38 65.032 219.529 64.808C219.689 64.5733 219.769 64.3227 219.769 64.056C219.769 63.6933 219.641 63.4 219.385 63.176C219.129 62.9413 218.761 62.824 218.281 62.824C217.78 62.824 217.385 62.952 217.097 63.208C216.82 63.4533 216.681 63.7787 216.681 64.184C216.681 64.3867 216.713 64.584 216.777 64.776C216.852 64.9573 216.98 65.1653 217.161 65.4C217.353 65.624 217.625 65.912 217.977 66.264L223.897 72.152L223.033 73.176L216.745 66.92C216.372 66.5467 216.078 66.216 215.865 65.928C215.652 65.6293 215.497 65.3413 215.401 65.064C215.305 64.7867 215.257 64.504 215.257 64.216C215.257 63.7147 215.38 63.2773 215.625 62.904C215.881 62.52 216.233 62.2267 216.681 62.024C217.14 61.8107 217.673 61.704 218.281 61.704C218.846 61.704 219.337 61.8 219.753 61.992C220.169 62.1733 220.489 62.44 220.713 62.792C220.948 63.1333 221.065 63.5493 221.065 64.04C221.065 64.4667 220.958 64.8613 220.745 65.224C220.542 65.5867 220.212 65.9387 219.753 66.28C219.294 66.6213 218.676 66.9893 217.897 67.384C217.257 67.7147 216.756 68.024 216.393 68.312C216.03 68.5893 215.769 68.8667 215.609 69.144C215.46 69.4213 215.385 69.7253 215.385 70.056C215.385 70.408 215.486 70.7227 215.689 71C215.902 71.2667 216.196 71.4747 216.569 71.624C216.953 71.7733 217.396 71.848 217.897 71.848C218.612 71.848 219.257 71.6933 219.833 71.384C220.409 71.0747 220.889 70.6107 221.273 69.992C221.668 69.3733 221.956 68.6053 222.137 67.688L223.369 68.088C223.156 69.1653 222.788 70.0773 222.265 70.824C221.753 71.5707 221.118 72.1413 220.361 72.536C219.604 72.9307 218.75 73.128 217.801 73.128ZM230.407 73V61.8H235.127C236.321 61.8 237.372 62.0347 238.279 62.504C239.196 62.9733 239.905 63.6293 240.407 64.472C240.919 65.3147 241.175 66.2907 241.175 67.4C241.175 68.5093 240.919 69.4853 240.407 70.328C239.905 71.1707 239.196 71.8267 238.279 72.296C237.372 72.7653 236.321 73 235.127 73H230.407ZM232.007 71.608H235.031C235.959 71.608 236.759 71.432 237.431 71.08C238.113 70.728 238.641 70.2373 239.015 69.608C239.388 68.968 239.575 68.232 239.575 67.4C239.575 66.5573 239.388 65.8213 239.015 65.192C238.641 64.5627 238.113 64.072 237.431 63.72C236.759 63.368 235.959 63.192 235.031 63.192H232.007V71.608ZM245.231 66.632H250.991V67.992H245.231V66.632ZM245.375 71.608H251.903V73H243.775V61.8H251.679V63.192H245.375V71.608ZM257.908 73.128C257.055 73.128 256.239 73 255.46 72.744C254.681 72.4773 254.068 72.136 253.62 71.72L254.212 70.472C254.639 70.8453 255.183 71.1547 255.844 71.4C256.505 71.6453 257.193 71.768 257.908 71.768C258.559 71.768 259.087 71.6933 259.492 71.544C259.897 71.3947 260.196 71.192 260.388 70.936C260.58 70.6693 260.676 70.3707 260.676 70.04C260.676 69.656 260.548 69.3467 260.292 69.112C260.047 68.8773 259.721 68.6907 259.316 68.552C258.921 68.4027 258.484 68.2747 258.004 68.168C257.524 68.0613 257.039 67.9387 256.548 67.8C256.068 67.6507 255.625 67.464 255.22 67.24C254.825 67.016 254.505 66.7173 254.26 66.344C254.015 65.96 253.892 65.4693 253.892 64.872C253.892 64.296 254.041 63.768 254.34 63.288C254.649 62.7973 255.119 62.408 255.748 62.12C256.388 61.8213 257.199 61.672 258.18 61.672C258.831 61.672 259.476 61.7573 260.116 61.928C260.756 62.0987 261.311 62.344 261.78 62.664L261.252 63.944C260.772 63.624 260.265 63.3947 259.732 63.256C259.199 63.1067 258.681 63.032 258.18 63.032C257.551 63.032 257.033 63.112 256.628 63.272C256.223 63.432 255.924 63.6453 255.732 63.912C255.551 64.1787 255.46 64.4773 255.46 64.808C255.46 65.2027 255.583 65.5173 255.828 65.752C256.084 65.9867 256.409 66.1733 256.804 66.312C257.209 66.4507 257.652 66.5787 258.132 66.696C258.612 66.8027 259.092 66.9253 259.572 67.064C260.063 67.2027 260.505 67.384 260.9 67.608C261.305 67.832 261.631 68.1307 261.876 68.504C262.121 68.8773 262.244 69.3573 262.244 69.944C262.244 70.5093 262.089 71.0373 261.78 71.528C261.471 72.008 260.991 72.3973 260.34 72.696C259.7 72.984 258.889 73.128 257.908 73.128ZM264.732 73V61.8H266.332V73H264.732ZM274.891 73.128C274.027 73.128 273.232 72.9893 272.507 72.712C271.781 72.424 271.152 72.024 270.619 71.512C270.085 70.9893 269.669 70.3813 269.371 69.688C269.072 68.9947 268.923 68.232 268.923 67.4C268.923 66.568 269.072 65.8053 269.371 65.112C269.669 64.4187 270.085 63.816 270.619 63.304C271.163 62.7813 271.797 62.3813 272.523 62.104C273.248 61.816 274.048 61.672 274.923 61.672C275.808 61.672 276.619 61.816 277.355 62.104C278.091 62.392 278.715 62.824 279.227 63.4L278.235 64.392C277.776 63.944 277.275 63.6187 276.731 63.416C276.197 63.2027 275.616 63.096 274.987 63.096C274.347 63.096 273.749 63.2027 273.195 63.416C272.651 63.6293 272.176 63.928 271.771 64.312C271.376 64.696 271.067 65.1547 270.843 65.688C270.629 66.2107 270.523 66.7813 270.523 67.4C270.523 68.008 270.629 68.5787 270.843 69.112C271.067 69.6347 271.376 70.0933 271.771 70.488C272.176 70.872 272.651 71.1707 273.195 71.384C273.739 71.5973 274.331 71.704 274.971 71.704C275.568 71.704 276.139 71.6133 276.683 71.432C277.237 71.24 277.749 70.9253 278.219 70.488L279.131 71.704C278.576 72.1733 277.925 72.5307 277.179 72.776C276.443 73.0107 275.68 73.128 274.891 73.128ZM277.595 71.496V67.336H279.131V71.704L277.595 71.496ZM282.344 73V61.8H283.656L291.064 71H290.376V61.8H291.976V73H290.664L283.256 63.8H283.944V73H282.344Z" fill="#134302"/>
</svg>
