<svg width="170" height="51" viewBox="0 0 170 51" fill="none" xmlns="http://www.w3.org/2000/svg">
<path d="M3.43019 19.468H15.6702V22.358H3.43019V19.468ZM3.73619 30.042H17.6082V33H0.33619V9.2H17.1322V12.158H3.73619V30.042ZM23.3635 33V9.2H26.7635V30.042H39.6495V33H23.3635ZM46.861 20.454H59.135V23.378H46.861V20.454ZM47.201 33H43.801V9.2H60.597V12.158H47.201V33ZM65.6331 33V9.2H74.9151C77.0004 9.2 78.7797 9.52867 80.2531 10.186C81.7264 10.8433 82.8597 11.7953 83.6531 13.042C84.4464 14.2887 84.8431 15.7733 84.8431 17.496C84.8431 19.2187 84.4464 20.7033 83.6531 21.95C82.8597 23.174 81.7264 24.1147 80.2531 24.772C78.7797 25.4293 77.0004 25.758 74.9151 25.758H67.5031L69.0331 24.194V33H65.6331ZM81.5451 33L75.4931 24.364H79.1311L85.2511 33H81.5451ZM69.0331 24.534L67.5031 22.868H74.8131C76.9891 22.868 78.6324 22.4033 79.7431 21.474C80.8764 20.522 81.4431 19.196 81.4431 17.496C81.4431 15.796 80.8764 14.4813 79.7431 13.552C78.6324 12.6227 76.9891 12.158 74.8131 12.158H67.5031L69.0331 10.458V24.534ZM90.5862 33V9.2H93.9862V33H90.5862ZM104.456 19.468H116.696V22.358H104.456V19.468ZM104.762 30.042H118.634V33H101.362V9.2H118.158V12.158H104.762V30.042ZM124.389 33V9.2H134.419C136.958 9.2 139.19 9.69867 141.117 10.696C143.066 11.6933 144.574 13.0873 145.639 14.878C146.727 16.6687 147.271 18.7427 147.271 21.1C147.271 23.4573 146.727 25.5313 145.639 27.322C144.574 29.1127 143.066 30.5067 141.117 31.504C139.19 32.5013 136.958 33 134.419 33H124.389ZM127.789 30.042H134.215C136.187 30.042 137.887 29.668 139.315 28.92C140.766 28.172 141.888 27.1293 142.681 25.792C143.474 24.432 143.871 22.868 143.871 21.1C143.871 19.3093 143.474 17.7453 142.681 16.408C141.888 15.0707 140.766 14.028 139.315 13.28C137.887 12.532 136.187 12.158 134.215 12.158H127.789V30.042ZM155.823 19.468H168.063V22.358H155.823V19.468ZM156.129 30.042H170.001V33H152.729V9.2H169.525V12.158H156.129V30.042Z" fill="#282C35"/>
<path d="M27.8359 42.488H25.4359V41.8H27.8359V42.488ZM26.5239 39.144H26.7479L25.0279 44H24.2279L26.2359 38.4H27.0359L29.0439 44H28.2439L26.5239 39.144ZM31.2416 44V38.4H33.0576C33.4469 38.4 33.7869 38.46 34.0776 38.58C34.3682 38.7 34.5936 38.8853 34.7536 39.136C34.9136 39.3867 34.9936 39.7093 34.9936 40.104C34.9936 40.488 34.9096 40.8093 34.7416 41.068C34.5762 41.3267 34.3349 41.5307 34.0176 41.68L35.2736 44H34.3456L33.2096 41.816C33.2016 41.816 33.1949 41.816 33.1896 41.816C33.1842 41.816 33.1776 41.816 33.1696 41.816H32.0416V44H31.2416ZM32.0416 41.136H33.0496C33.4309 41.136 33.7176 41.044 33.9096 40.86C34.1042 40.676 34.2016 40.424 34.2016 40.104C34.2016 39.7787 34.1042 39.5267 33.9096 39.348C33.7176 39.1693 33.4309 39.08 33.0496 39.08H32.0416V41.136ZM40.0579 44.112C39.5139 44.112 39.0285 43.9933 38.6019 43.756C38.1779 43.516 37.8432 43.1787 37.5979 42.744C37.3552 42.3067 37.2339 41.792 37.2339 41.2C37.2339 40.608 37.3565 40.0947 37.6019 39.66C37.8499 39.2227 38.1885 38.8853 38.6179 38.648C39.0499 38.408 39.5405 38.288 40.0899 38.288C40.3752 38.288 40.6472 38.3187 40.9059 38.38C41.1645 38.4413 41.3912 38.52 41.5859 38.616L41.5059 39.32C41.3059 39.224 41.0859 39.1427 40.8459 39.076C40.6059 39.0093 40.3512 38.976 40.0819 38.976C39.6419 38.976 39.2725 39.076 38.9739 39.276C38.6752 39.4733 38.4485 39.74 38.2939 40.076C38.1419 40.412 38.0659 40.7867 38.0659 41.2C38.0659 41.6133 38.1405 41.988 38.2899 42.324C38.4419 42.66 38.6659 42.928 38.9619 43.128C39.2605 43.3253 39.6285 43.424 40.0659 43.424C40.3432 43.424 40.5992 43.3947 40.8339 43.336C41.0712 43.2747 41.2952 43.192 41.5059 43.088L41.5859 43.792C41.3859 43.8827 41.1605 43.9587 40.9099 44.02C40.6592 44.0813 40.3752 44.112 40.0579 44.112ZM43.9916 44V38.4H44.7516V40.712H47.5996V38.4H48.3596V44H47.5996V41.432H44.7516V44H43.9916ZM51.14 44V38.4H51.9V44H51.14ZM55.7911 44V39.088H54.1591V38.4H58.1831V39.088H56.5511V44H55.7911ZM60.4447 44V38.4H63.8607V39.088H61.2047V40.728H63.3167V41.416H61.2047V43.312H63.9327V44H60.4447ZM68.7844 44.112C68.2404 44.112 67.7551 43.9933 67.3284 43.756C66.9044 43.516 66.5698 43.1787 66.3244 42.744C66.0818 42.3067 65.9604 41.792 65.9604 41.2C65.9604 40.608 66.0831 40.0947 66.3284 39.66C66.5764 39.2227 66.9151 38.8853 67.3444 38.648C67.7764 38.408 68.2671 38.288 68.8164 38.288C69.1018 38.288 69.3738 38.3187 69.6324 38.38C69.8911 38.4413 70.1178 38.52 70.3124 38.616L70.2324 39.32C70.0324 39.224 69.8124 39.1427 69.5724 39.076C69.3324 39.0093 69.0778 38.976 68.8084 38.976C68.3684 38.976 67.9991 39.076 67.7004 39.276C67.4018 39.4733 67.1751 39.74 67.0204 40.076C66.8684 40.412 66.7924 40.7867 66.7924 41.2C66.7924 41.6133 66.8671 41.988 67.0164 42.324C67.1684 42.66 67.3924 42.928 67.6884 43.128C67.9871 43.3253 68.3551 43.424 68.7924 43.424C69.0698 43.424 69.3258 43.3947 69.5604 43.336C69.7978 43.2747 70.0218 43.192 70.2324 43.088L70.3124 43.792C70.1124 43.8827 69.8871 43.9587 69.6364 44.02C69.3858 44.0813 69.1018 44.112 68.7844 44.112ZM73.8301 44V39.088H72.1981V38.4H76.2221V39.088H74.5901V44H73.8301ZM80.7398 44.112C80.2144 44.112 79.7798 44.012 79.4358 43.812C79.0944 43.6093 78.8398 43.3227 78.6718 42.952C78.5038 42.5787 78.4198 42.136 78.4198 41.624V38.4H79.1798V41.416C79.1798 41.672 79.1998 41.92 79.2398 42.16C79.2798 42.4 79.3531 42.6147 79.4598 42.804C79.5691 42.9933 79.7264 43.144 79.9318 43.256C80.1398 43.368 80.4091 43.424 80.7398 43.424C81.0731 43.424 81.3424 43.368 81.5478 43.256C81.7531 43.144 81.9091 42.9933 82.0158 42.804C82.1251 42.612 82.1998 42.396 82.2398 42.156C82.2798 41.916 82.2998 41.6693 82.2998 41.416V38.4H83.0598V41.624C83.0598 42.136 82.9758 42.5787 82.8078 42.952C82.6398 43.3227 82.3838 43.6093 82.0398 43.812C81.6984 44.012 81.2651 44.112 80.7398 44.112ZM85.7728 44V38.4H87.5888C87.9781 38.4 88.3181 38.46 88.6088 38.58C88.8995 38.7 89.1248 38.8853 89.2848 39.136C89.4448 39.3867 89.5248 39.7093 89.5248 40.104C89.5248 40.488 89.4408 40.8093 89.2728 41.068C89.1075 41.3267 88.8661 41.5307 88.5488 41.68L89.8048 44H88.8768L87.7408 41.816C87.7328 41.816 87.7261 41.816 87.7208 41.816C87.7155 41.816 87.7088 41.816 87.7008 41.816H86.5728V44H85.7728ZM86.5728 41.136H87.5808C87.9621 41.136 88.2488 41.044 88.4408 40.86C88.6355 40.676 88.7328 40.424 88.7328 40.104C88.7328 39.7787 88.6355 39.5267 88.4408 39.348C88.2488 39.1693 87.9621 39.08 87.5808 39.08H86.5728V41.136ZM92.0931 44V38.4H95.5091V39.088H92.8531V40.728H94.9651V41.416H92.8531V43.312H95.5811V44H92.0931ZM102.752 44.184C102.376 44.184 102.054 44.1173 101.788 43.984C101.524 43.8507 101.321 43.672 101.18 43.448C101.038 43.224 100.968 42.976 100.968 42.704C100.968 42.4987 101.002 42.304 101.072 42.12C101.141 41.9333 101.249 41.7547 101.396 41.584C101.545 41.4107 101.738 41.24 101.976 41.072C101.744 40.7867 101.585 40.5347 101.5 40.316C101.417 40.0973 101.376 39.896 101.376 39.712C101.376 39.432 101.44 39.192 101.568 38.992C101.698 38.792 101.872 38.64 102.088 38.536C102.304 38.4293 102.541 38.376 102.8 38.376C103.256 38.376 103.589 38.4827 103.8 38.696C104.013 38.9067 104.12 39.168 104.12 39.48C104.12 39.712 104.056 39.924 103.928 40.116C103.8 40.308 103.633 40.488 103.428 40.656C103.222 40.824 103.002 40.9893 102.768 41.152L104.288 42.712C104.346 42.64 104.394 42.5373 104.432 42.404C104.472 42.2707 104.502 42.1267 104.524 41.972C104.548 41.8147 104.565 41.6667 104.576 41.528C104.589 41.3867 104.597 41.2747 104.6 41.192H105.248C105.242 41.3493 105.226 41.5427 105.2 41.772C105.173 41.9987 105.122 42.2373 105.048 42.488C104.976 42.7387 104.869 42.976 104.728 43.2L105.424 44H104.688L104.336 43.632C104.085 43.84 103.838 43.984 103.596 44.064C103.353 44.144 103.072 44.184 102.752 44.184ZM102.768 43.64C103.056 43.64 103.296 43.596 103.488 43.508C103.682 43.42 103.845 43.304 103.976 43.16L102.312 41.496C102.125 41.6267 101.97 41.792 101.848 41.992C101.725 42.192 101.664 42.4107 101.664 42.648C101.664 42.8293 101.702 42.996 101.78 43.148C101.857 43.2973 101.977 43.4173 102.14 43.508C102.302 43.596 102.512 43.64 102.768 43.64ZM102.464 40.752C102.682 40.6 102.866 40.4627 103.016 40.34C103.165 40.2147 103.278 40.0893 103.356 39.964C103.433 39.836 103.472 39.6907 103.472 39.528C103.472 39.336 103.41 39.188 103.288 39.084C103.165 38.98 103 38.928 102.792 38.928C102.592 38.928 102.413 38.9947 102.256 39.128C102.101 39.2587 102.024 39.4587 102.024 39.728C102.024 39.848 102.052 39.9933 102.108 40.164C102.166 40.3347 102.285 40.5307 102.464 40.752ZM111.007 44V38.4H113.079C113.621 38.4 114.101 38.5107 114.519 38.732C114.938 38.9533 115.266 39.2733 115.503 39.692C115.743 40.108 115.863 40.6107 115.863 41.2C115.863 41.7893 115.743 42.2933 115.503 42.712C115.266 43.128 114.938 43.4467 114.519 43.668C114.101 43.8893 113.621 44 113.079 44H111.007ZM111.767 43.312H113.079C113.506 43.312 113.863 43.224 114.151 43.048C114.442 42.8693 114.661 42.6213 114.807 42.304C114.957 41.9867 115.031 41.6187 115.031 41.2C115.031 40.7813 114.957 40.4133 114.807 40.096C114.661 39.7787 114.442 39.532 114.151 39.356C113.863 39.1773 113.506 39.088 113.079 39.088H111.767V43.312ZM118.32 44V38.4H121.736V39.088H119.08V40.728H121.192V41.416H119.08V43.312H121.808V44H118.32ZM125.849 44.112C125.617 44.112 125.385 44.0947 125.153 44.06C124.921 44.0253 124.707 43.9813 124.509 43.928C124.312 43.872 124.148 43.8133 124.017 43.752L124.121 42.944C124.265 43.0133 124.439 43.0853 124.641 43.16C124.847 43.2347 125.068 43.2973 125.305 43.348C125.543 43.3987 125.783 43.424 126.025 43.424C126.385 43.424 126.671 43.3587 126.881 43.228C127.095 43.0947 127.201 42.888 127.201 42.608C127.201 42.3973 127.148 42.2253 127.041 42.092C126.935 41.956 126.773 41.84 126.557 41.744C126.344 41.648 126.076 41.552 125.753 41.456C125.447 41.3653 125.164 41.2587 124.905 41.136C124.647 41.0107 124.439 40.844 124.281 40.636C124.127 40.4253 124.049 40.1467 124.049 39.8C124.049 39.504 124.125 39.2427 124.277 39.016C124.432 38.7867 124.657 38.608 124.953 38.48C125.252 38.352 125.617 38.288 126.049 38.288C126.417 38.288 126.755 38.328 127.061 38.408C127.371 38.488 127.625 38.576 127.825 38.672L127.745 39.48C127.441 39.2987 127.151 39.1693 126.873 39.092C126.599 39.0147 126.313 38.976 126.017 38.976C125.689 38.976 125.417 39.0373 125.201 39.16C124.988 39.2827 124.881 39.4827 124.881 39.76C124.881 39.9467 124.929 40.1 125.025 40.22C125.121 40.3373 125.264 40.4387 125.453 40.524C125.643 40.6067 125.879 40.6907 126.161 40.776C126.551 40.8933 126.885 41.028 127.165 41.18C127.445 41.3293 127.66 41.5147 127.809 41.736C127.959 41.9547 128.033 42.2267 128.033 42.552C128.033 42.792 127.988 43.008 127.897 43.2C127.807 43.392 127.671 43.556 127.489 43.692C127.308 43.828 127.08 43.932 126.805 44.004C126.533 44.076 126.215 44.112 125.849 44.112ZM130.421 44V38.4H131.181V44H130.421ZM136.376 44.112C135.859 44.112 135.392 43.9933 134.976 43.756C134.563 43.516 134.235 43.1773 133.992 42.74C133.752 42.3027 133.632 41.7867 133.632 41.192C133.632 40.6027 133.756 40.0907 134.004 39.656C134.255 39.2213 134.598 38.8853 135.032 38.648C135.47 38.408 135.968 38.288 136.528 38.288C136.83 38.288 137.116 38.32 137.388 38.384C137.663 38.4453 137.902 38.52 138.104 38.608L138.032 39.272C137.814 39.1867 137.582 39.116 137.336 39.06C137.091 39.004 136.83 38.976 136.552 38.976C136.075 38.976 135.682 39.076 135.372 39.276C135.066 39.4733 134.838 39.74 134.688 40.076C134.539 40.412 134.464 40.7867 134.464 41.2C134.464 41.6267 134.54 42.008 134.692 42.344C134.844 42.6773 135.078 42.9413 135.392 43.136C135.707 43.328 136.107 43.424 136.592 43.424C136.712 43.424 136.862 43.4133 137.04 43.392C137.219 43.3707 137.382 43.3307 137.528 43.272V41.88H136.648V41.192H138.288V43.688C138.07 43.808 137.798 43.9093 137.472 43.992C137.147 44.072 136.782 44.112 136.376 44.112ZM140.835 44V38.4H141.659L144.419 42.592V38.4H145.187V44H144.539L141.595 39.576V44H140.835Z" fill="#134302"/>
</svg>
